<?xml version="1.0" standalone="no"?>
<!DOCTYPE svg PUBLIC "-//W3C//DTD SVG 20010904//EN"
 "http://www.w3.org/TR/2001/REC-SVG-20010904/DTD/svg10.dtd">
<svg version="1.0" xmlns="http://www.w3.org/2000/svg"
 width="512.000000pt" height="512.000000pt" viewBox="0 0 512.000000 512.000000"
 preserveAspectRatio="xMidYMid meet">
<metadata>
Created by potrace 1.16, written by Peter Selinger 2001-2019
</metadata>
<g transform="translate(0.000000,512.000000) scale(0.100000,-0.100000)"
fill="#00ff00" stroke="none">
<path d="M2501 4858 c-13 -7 -32 -24 -42 -38 -18 -24 -19 -51 -11 -595 14
-1077 -10 -2116 -68 -2992 -10 -148 -6 -175 28 -206 47 -43 147 -25 177 33 14
26 32 270 55 735 31 633 35 866 35 1895 0 1000 -1 1077 -18 1110 -9 19 -26 41
-37 47 -30 20 -92 25 -119 11z"/>
<path d="M3703 1687 c-12 -7 -266 -246 -565 -533 -298 -286 -573 -548 -610
-583 l-68 -63 -27 22 c-15 12 -241 223 -502 468 -261 246 -486 455 -500 464
-32 22 -99 23 -129 2 -43 -30 -65 -101 -43 -142 13 -25 1049 -997 1096 -1029
56 -38 136 -43 196 -13 26 14 123 100 234 209 104 102 389 377 632 609 242
233 444 430 447 438 11 29 6 90 -10 112 -32 46 -105 65 -151 39z"/>
</g>
</svg>
